<?xml version="1.0" encoding="utf-8"?>
<!-- Generator: Adobe Illustrator 24.1.2, SVG Export Plug-In . SVG Version: 6.00 Build 0)  -->
<svg version="1.1" id="Capa_1" xmlns="http://www.w3.org/2000/svg" xmlns:xlink="http://www.w3.org/1999/xlink" x="0px" y="0px"
	 viewBox="0 0 1384.9 944.8" style="enable-background:new 0 0 1384.9 944.8;" xml:space="preserve">
<style type="text/css">
	.st0{fill:#000;}
	.st1{fill:#000;stroke:#fff;stroke-miterlimit:10;}
</style>
<path id="XMLID_238_" class="st0" d="M510.4,472.2c0.6,0.1,1.3,0.1,1.9,0.1c0.7,0,1.3,0,1.9-0.1H510.4z M463.2,472.4
	c0.9,0,1.8-0.1,2.7-0.2h-5.3C461.4,472.3,462.3,472.4,463.2,472.4z"/>
<path class="st1" d="M582.1,0.5H393.5c-8.4,0-15.2,6.8-15.2,15.2v76.5c0,5.4,3,10,7.3,12.7c-2.3,3.6-3.2,8-1.9,12.4l15.6,51
	c0.7,2.4,2.1,4.6,3.9,6.4l42,40.5c0,156.1,0,48.5,0,239.2c0,9,6.7,16.5,15.3,17.8h5.3c8.7-1.3,15.3-8.8,15.3-17.8V347.1h13.1v107.2
	c0,9.3,7.1,16.9,16.1,17.9h3.8c9-1,16.1-8.7,16.1-17.9c0-172.5,0-66.6,0-239.2l42-40.5c1.8-1.8,3.2-4,3.9-6.4l15.6-51
	c1.3-4.4,0.4-8.8-1.9-12.4c4.3-2.7,7.3-7.2,7.3-12.7V15.7C597.3,7.3,590.5,0.5,582.1,0.5z M563.1,108.4l-14.5,47.3l-35.1,34h-21.9
	c17.6-1.9,31.3-16.8,31.3-34.8c0-19.4-15.7-35.1-35.1-35.1c-19.4,0-35.1,15.7-35.1,35.1c0,18.1,13.7,32.9,31.3,34.8h-21.9l-35.2-34
	l-14.5-47.3c-0.1-0.4-0.4-0.7-0.6-1h151.9C563.5,107.8,563.2,108.1,563.1,108.4z"/>
<path class="st1" d="M752,333c-7.2,3.3-15.8,0.2-19.1-7.1l-23.2-50.8v179.8c0,9.6-7.8,17.3-17.3,17.3c-9.6,0-17.3-7.8-17.3-17.3
	V351.3h-12.6v103.6c0,9.6-7.8,17.3-17.3,17.3c-9.6,0-17.3-7.8-17.3-17.3V275.1l-23.2,50.8c-3.3,7.3-11.9,10.4-19.1,7.1
	c-7.2-3.3-10.4-11.9-7.1-19.1l48-105.1c2.6-5.7,8.5-8.8,14.4-8.2c0.3,0,11.8-0.1,24.2-0.1c-17-1.8-30.2-16.1-30.2-33.4
	c0-18.6,15.1-33.7,33.7-33.7c18.6,0,33.7,15.1,33.7,33.7c0,17.3-13.2,31.7-30.2,33.4c12.5,0,24,0,24.3,0.1
	c5.9-0.5,11.8,2.5,14.4,8.2l48,105.1C762.1,321.1,758.9,329.7,752,333z"/>
<path class="st1" d="M960.6,333c-7.2,3.3-15.8,0.2-19.1-7.1l-23.2-50.8v179.8c0,9.6-7.8,17.3-17.3,17.3c-9.6,0-17.3-7.8-17.3-17.3
	V351.3h-12.6v103.6c0,9.6-7.8,17.3-17.3,17.3c-9.6,0-17.3-7.8-17.3-17.3V275.1l-23.2,50.8c-3.3,7.3-11.9,10.4-19.1,7.1
	s-10.4-11.9-7.1-19.1l48-105.1c2.6-5.7,8.5-8.8,14.4-8.2c0.3,0,11.8-0.1,24.2-0.1c-17-1.8-30.1-16.1-30.2-33.4
	c0-18.6,15.1-33.7,33.7-33.7c18.6,0,33.7,15.1,33.7,33.7c0,17.3-13.2,31.7-30.2,33.4c12.5,0,24,0,24.3,0.1
	c5.9-0.5,11.8,2.5,14.4,8.2l48,105.1C970.7,321.1,967.5,329.7,960.6,333z"/>
<path class="st1" d="M1174.7,314.9l-48-105.1c-2.6-5.7-8.5-8.7-14.4-8.2c-0.3,0-11.8-0.1-24.3-0.1c16.9-1.8,30.2-16.1,30.2-33.4
	c0-18.6-15.1-33.7-33.7-33.7s-33.7,15.1-33.7,33.7c0,17.3,13.2,31.7,30.2,33.4c-12.4,0-23.9,0-24.2,0.1c-5.9-0.6-11.8,2.5-14.4,8.2
	l-48,105.1c-3.3,7.2-0.1,15.8,7.1,19.1s15.8,0.2,19.1-7.1l23.2-50.8v179.8c0,7.2,4.5,13.5,10.9,16.1h3.6c0.9,0.2,1.8,0.2,2.8,0.2
	H918c-7.2,1.2-12.6,7.5-12.6,15v76.5c0,5.4,3,10,7.3,12.7c-2.3,3.6-3.2,8-1.9,12.4l15.6,51c0.7,2.4,2.1,4.6,3.9,6.4l42,40.5
	c0,156.1,0,48.5,0,239.2c0,9.3,7.1,16.9,16.1,17.9h3.8c9-1,16.1-8.7,16.1-17.9V818.6h13.1v107.2c0,9.9,8.1,18,18,18s18-8.1,18-18
	c0-172.5,0-66.6,0-239.2l42-40.5c1.8-1.8,3.2-4,3.9-6.4l15.6-51c1.3-4.4,0.4-8.8-1.9-12.4c4.3-2.7,7.3-7.2,7.3-12.7v-76.4
	c0.1-7-4.7-12.9-11.1-14.7c7.2-2.1,12.4-8.7,12.4-16.6V276.1l23.2,50.8c3.3,7.3,11.9,10.4,19.1,7.1
	C1174.8,330.7,1178,322.1,1174.7,314.9z M1090.2,579.9l-14.5,47.3l-35.1,34h-21.9c17.6-1.9,31.3-16.8,31.3-34.8
	c0-19.4-15.7-35.1-35.1-35.1s-35.1,15.7-35.1,35.1c0,18.1,13.7,32.9,31.3,34.8h-21.9l-35.2-34l-14.5-47.3c-0.1-0.4-0.4-0.7-0.6-1
	h151.9C1090.6,579.3,1090.3,579.6,1090.2,579.9z M1066.9,472.2c0.2-0.1,0.4-0.2,0.6-0.2c6.4-2.5,10.9-8.8,10.9-16.1V352.3h12.6
	v103.6c0,7.2,4.5,13.5,10.9,16.1c0.2,0.1,0.4,0.2,0.6,0.2H1066.9z M1108.3,472.2c0.8,0,1.6,0,2.3-0.2c0.4,0,0.8,0.1,1.2,0.2H1108.3z
	"/>
<path class="st0" d="M1061.1,472.2h-5.8c-0.2-0.1-0.4-0.2-0.6-0.2h3.6C1059.2,472.1,1060.1,472.2,1061.1,472.2z"/>
<path class="st0" d="M1111.8,472.2h-3.5c0.8,0,1.6,0,2.3-0.2C1111,472.1,1111.4,472.1,1111.8,472.2z"/>
<path class="st0" d="M1271.3,472.2c-0.6,0.1-1.2,0.1-1.8,0.1c-0.6,0-1.2,0-1.9-0.1H1271.3z"/>
<path class="st1" d="M1376.3,333c-7.2,3.3-15.8,0.2-19.1-7.1l-23.2-50.8v179.8c0,9.6-7.8,17.3-17.3,17.3c-9.6,0-17.3-7.8-17.3-17.3
	V351.3h-12.6V455c0,9-6.8,16.3-15.5,17.2h-3.7c-8.7-0.9-15.4-8.3-15.4-17.2V275.2L1229,326c-3.3,7.3-11.9,10.4-19.1,7.1
	c-7.2-3.3-10.4-11.9-7.1-19.1l48-105.1c2.6-5.7,8.5-8.8,14.4-8.2c0.3,0,12.6-0.1,25.4-0.1c-17.5-1.2-31.3-15.7-31.4-33.5
	c0-18.6,15.1-33.7,33.7-33.7s33.7,15.1,33.7,33.7c0,17.7-13.9,32.4-31.4,33.5c12.9,0,25.2,0,25.5,0.1c5.9-0.5,11.8,2.5,14.4,8.2
	l48,105.1C1386.4,321.2,1383.2,329.7,1376.3,333z"/>
<path class="st0" d="M326.2,472.2c-1.2,0.3-2.4,0.4-3.7,0.4c-1.3,0-2.5-0.1-3.7-0.4H326.2z"/>
<path class="st1" d="M388.9,314.3l-48-105.1c-2.6-5.7-8.5-8.7-14.4-8.2c-0.3,0-11.8-0.1-24.3-0.1c17-1.8,30.2-16.1,30.2-33.4
	c0-18.6-15.1-33.7-33.7-33.7c-18.6,0-33.7,15.1-33.7,33.7c0.1,17.3,13.2,31.7,30.2,33.4c-12.4,0-23.9,0-24.2,0.1
	c-5.9-0.6-11.8,2.5-14.4,8.2l-48,105.1c-3.3,7.2-0.1,15.8,7.1,19.1c7.2,3.3,15.8,0.2,19.1-7.1l23.2-50.8v179.8
	c0,8.2,5.8,15.2,13.6,16.9c0.4,0.1,0.8,0.2,1.2,0.2h-152c7-2.2,12.1-8.7,12.1-16.5V276.1l23.2,50.8c3.3,7.3,11.9,10.4,19.1,7.1
	c6.9-3.3,10.1-11.9,6.8-19.1l-48-105.1c-2.6-5.7-8.5-8.7-14.4-8.2c-0.3,0-11.8-0.1-24.3-0.1c17-1.8,30.2-16.1,30.2-33.4
	c0-18.6-15.1-33.7-33.7-33.7c-18.6,0-33.7,15.1-33.7,33.7c0,17.3,13.2,31.7,30.2,33.4c-12.4,0-23.9,0-24.2,0.1
	c-5.9-0.6-11.8,2.5-14.4,8.2l-48,105.1c-3.3,7.2-0.1,15.8,7.1,19.1c7.2,3.3,15.8,0.2,19.1-7.1l23.2-50.8v179.8
	c0,9.5,7.7,17.3,17.3,17.3c9.5,0,17.3-7.7,17.3-17.3V352.3h12.6v103.6c0,7.7,5.1,14.3,12.1,16.5H89.2c-8.4,0-15.2,6.8-15.2,15.2
	v76.5c0,5.4,3,10,7.3,12.7c-2.3,3.6-3.2,8-1.9,12.4l15.6,51c0.7,2.4,2.1,4.6,3.9,6.4l42,40.5c0,156.1,0,48.5,0,239.2
	c0,8.4,5.8,15.5,13.6,17.4c1.4,0.4,2.9,0.6,4.4,0.6c1.5,0,3-0.2,4.4-0.6c7.8-2,13.6-9.1,13.6-17.4V819H190v107.2
	c0,8.5,6,15.7,14,17.5c1.3,0.3,2.6,0.5,4,0.5s2.7-0.2,4-0.5c8-1.8,14-9,14-17.5c0-172.5,0-66.6,0-239.2l42-40.5
	c1.8-1.8,3.2-4,3.9-6.4l15.6-51c1.3-4.4,0.4-8.8-1.9-12.4c4.3-2.7,7.3-7.2,7.3-12.7v-76.4c0.1-8.4-6.7-15.2-15.1-15.2
	c0.4,0,0.8-0.1,1.2-0.2c7.8-1.7,13.6-8.6,13.6-16.9V351.7h12.6v103.6c0,8.2,5.8,15.2,13.6,16.9h7.4c7.8-1.7,13.6-8.6,13.6-16.9
	V275.5l23.2,50.8c3.3,7.3,11.9,10.4,19.1,7.1C389,330.1,392.2,321.6,388.9,314.3z M258.8,580.3l-14.5,47.3l-35.1,34h-14.7
	c15.3-3.8,26.6-17.6,26.6-34c0-19.4-15.7-35.1-35.1-35.1c-19.4,0-35.1,15.7-35.1,35.1c0,16.5,11.3,30.2,26.6,34h-19.6l-35.2-34
	l-14.5-47.3c-0.1-0.4-0.4-0.7-0.6-1h151.9C259.2,579.7,258.9,580,258.8,580.3z"/>
<path class="st0" d="M1188.7,943.8c-0.6,0.1-1.2,0.1-1.8,0.1c-0.6,0-1.2,0-1.9-0.1H1188.7z"/>
<path class="st1" d="M1293.7,804.6c-7.2,3.3-15.8,0.2-19.1-7.1l-23.2-50.8v179.8c0,9.6-7.8,17.3-17.3,17.3
	c-9.6,0-17.3-7.8-17.3-17.3V822.9h-12.6v103.7c0,9-6.8,16.3-15.5,17.2h-3.7c-8.7-0.9-15.4-8.3-15.4-17.2V746.8l-23.2,50.8
	c-3.3,7.3-11.9,10.4-19.1,7.1s-10.4-11.9-7.1-19.1l48-105.1c2.6-5.7,8.5-8.8,14.4-8.2c0.3,0,9.1-0.1,19.6-0.1
	c-14.6-3.6-25.5-16.8-25.6-32.6c0-18.6,15.1-33.7,33.7-33.7s33.7,15.1,33.7,33.7c0,15.7-10.9,29-25.6,32.6c10.5,0,19.4,0,19.7,0.1
	c5.9-0.5,11.8,2.5,14.4,8.2l48,105.1C1303.8,792.8,1300.6,801.3,1293.7,804.6z"/>
<path class="st0" d="M772.4,943.8c-0.6,0.1-1.2,0.1-1.8,0.1c-0.6,0-1.2,0-1.9-0.1H772.4z"/>
<path class="st0" d="M563.8,943.8c-0.6,0.1-1.2,0.1-1.8,0.1c-0.6,0-1.2,0-1.9-0.1H563.8z"/>
<path class="st0" d="M356.3,943.8c-0.6,0.1-1.2,0.1-1.8,0.1c-0.6,0-1.2,0-1.9-0.1H356.3z"/>
<path class="st1" d="M877.4,804.6c-7.2,3.3-15.8,0.2-19.1-7.1l-23.2-50.8v179.8c0,9.6-7.8,17.3-17.3,17.3c-9.6,0-17.3-7.8-17.3-17.3
	V822.9h-12.6v103.7c0,9-6.8,16.3-15.5,17.2h-3.7c-8.7-0.9-15.4-8.3-15.4-17.2V746.8l-23.2,50.8c-3.3,7.3-11.9,10.4-19.1,7.1
	s-10.4-11.9-7.1-19.1l48-105.1c2.6-5.7,8.5-8.8,14.4-8.2c0.3,0,9.3-0.1,20-0.1c-14.6-3.6-25.5-16.8-25.6-32.6
	c0-18.6,15.1-33.7,33.7-33.7c18.6,0,33.7,15.1,33.7,33.7c0,15.7-10.9,29-25.6,32.6c10.4,0,19.1,0,19.4,0.1
	c5.9-0.5,11.8,2.5,14.4,8.2l48,105.1C887.5,792.8,884.3,801.3,877.4,804.6z"/>
<path class="st1" d="M668.8,804.6c-7.2,3.3-15.8,0.2-19.1-7.1l-23.2-50.8v179.8c0,9.6-7.8,17.3-17.3,17.3c-9.6,0-17.3-7.8-17.3-17.3
	V822.9h-12.6v103.7c0,9-6.8,16.3-15.5,17.2h-3.7c-8.7-0.9-15.4-8.3-15.4-17.2V746.8l-23.2,50.8c-3.3,7.3-11.9,10.4-19.1,7.1
	c-7.2-3.3-10.4-11.9-7.1-19.1l48-105.1c2.6-5.7,8.5-8.8,14.4-8.2c0.3,0,9.4-0.1,20.2-0.1c-14.6-3.6-25.5-16.8-25.6-32.6
	c0-18.6,15.1-33.7,33.7-33.7c18.6,0,33.7,15.1,33.7,33.7c0,15.7-10.9,29-25.6,32.6c10.3,0,18.8,0,19.1,0.1
	c5.9-0.5,11.8,2.5,14.4,8.2l48,105.1C678.9,792.8,675.7,801.3,668.8,804.6z"/>
<path class="st1" d="M461.3,804.6c-7.2,3.3-15.8,0.2-19.1-7.1L419,746.7v179.8c0,9.6-7.8,17.3-17.3,17.3c-9.6,0-17.3-7.8-17.3-17.3
	V822.9h-12.6v103.7c0,9-6.8,16.3-15.5,17.2h-3.7c-8.7-0.9-15.4-8.3-15.4-17.2V746.8L314,797.6c-3.3,7.3-11.9,10.4-19.1,7.1
	c-7.2-3.3-10.4-11.9-7.1-19.1l48-105.1c2.6-5.7,8.5-8.8,14.4-8.2c0.3,0,9.3-0.1,20.1-0.1c-14.6-3.6-25.5-16.8-25.6-32.6
	c0-18.6,15.1-33.7,33.7-33.7c18.6,0,33.7,15.1,33.7,33.7c0,15.7-10.9,29-25.6,32.6c10.4,0,19,0,19.2,0.1c5.9-0.5,11.8,2.5,14.4,8.2
	l48,105.1C471.4,792.8,468.2,801.3,461.3,804.6z"/>
</svg>
